<svg width="1200" height="400" viewBox="0 0 1200 400" fill="none" xmlns="http://www.w3.org/2000/svg">
  <rect width="1200" height="400" fill="#0f172a"/>
  <rect x="40" y="40" width="180" height="100" rx="8" fill="#1e293b" stroke="#334155" stroke-width="1"/>
  <text x="130" y="80" text-anchor="middle" fill="#94a3b8" font-family="monospace" font-size="11">Lakebase</text>
  <text x="130" y="100" text-anchor="middle" fill="#64748b" font-family="monospace" font-size="9">OLTP Postgres</text>
  <line x1="220" y1="90" x2="280" y2="90" stroke="#475569" stroke-width="1.5" stroke-dasharray="4,3"/>
  <text x="250" y="82" text-anchor="middle" fill="#64748b" font-family="monospace" font-size="8">CDC</text>
  <rect x="280" y="40" width="160" height="100" rx="8" fill="#1e293b" stroke="#334155" stroke-width="1"/>
  <text x="360" y="75" text-anchor="middle" fill="#f97316" font-family="monospace" font-size="11">Bronze</text>
  <text x="360" y="95" text-anchor="middle" fill="#64748b" font-family="monospace" font-size="9">lb_*_history</text>
  <line x1="440" y1="90" x2="500" y2="90" stroke="#475569" stroke-width="1.5" stroke-dasharray="4,3"/>
  <rect x="500" y="40" width="160" height="100" rx="8" fill="#1e293b" stroke="#334155" stroke-width="1"/>
  <text x="580" y="75" text-anchor="middle" fill="#60a5fa" font-family="monospace" font-size="11">Silver</text>
  <text x="580" y="95" text-anchor="middle" fill="#64748b" font-family="monospace" font-size="9">SCD Type 1</text>
  <line x1="660" y1="90" x2="720" y2="90" stroke="#475569" stroke-width="1.5" stroke-dasharray="4,3"/>
  <rect x="720" y="40" width="160" height="100" rx="8" fill="#1e293b" stroke="#334155" stroke-width="1"/>
  <text x="800" y="75" text-anchor="middle" fill="#fbbf24" font-family="monospace" font-size="11">Gold</text>
  <text x="800" y="95" text-anchor="middle" fill="#64748b" font-family="monospace" font-size="9">Materialized Views</text>
  <rect x="920" y="40" width="240" height="100" rx="8" fill="#1e293b" stroke="#f97316" stroke-width="1.5"/>
  <text x="1040" y="75" text-anchor="middle" fill="#f97316" font-family="monospace" font-size="11">AI Agent Job</text>
  <text x="1040" y="95" text-anchor="middle" fill="#64748b" font-family="monospace" font-size="9">LLM via AI Gateway</text>
  <line x1="880" y1="90" x2="920" y2="90" stroke="#f97316" stroke-width="1.5" stroke-dasharray="4,3"/>
  <line x1="800" y1="140" x2="800" y2="180" stroke="#475569" stroke-width="1.5" stroke-dasharray="4,3"/>
  <text x="830" y="165" fill="#64748b" font-family="monospace" font-size="8">reverse sync</text>
  <rect x="40" y="200" width="180" height="100" rx="8" fill="#1e293b" stroke="#334155" stroke-width="1"/>
  <text x="130" y="240" text-anchor="middle" fill="#94a3b8" font-family="monospace" font-size="11">Lakebase</text>
  <text x="130" y="260" text-anchor="middle" fill="#64748b" font-family="monospace" font-size="9">gold.*_sync</text>
  <line x1="220" y1="250" x2="420" y2="250" stroke="#475569" stroke-width="1.5" stroke-dasharray="4,3"/>
  <rect x="420" y="180" width="360" height="140" rx="12" fill="#1e293b" stroke="#60a5fa" stroke-width="1.5"/>
  <text x="600" y="225" text-anchor="middle" fill="#60a5fa" font-family="monospace" font-size="13">Support Console</text>
  <text x="600" y="250" text-anchor="middle" fill="#94a3b8" font-family="monospace" font-size="10">Databricks App (AppKit)</text>
  <rect x="445" y="270" width="90" height="30" rx="4" fill="#0f172a" stroke="#334155" stroke-width="1"/>
  <text x="490" y="290" text-anchor="middle" fill="#64748b" font-family="monospace" font-size="9">Cases</text>
  <rect x="555" y="270" width="90" height="30" rx="4" fill="#0f172a" stroke="#334155" stroke-width="1"/>
  <text x="600" y="290" text-anchor="middle" fill="#64748b" font-family="monospace" font-size="9">AI Triage</text>
  <rect x="665" y="270" width="90" height="30" rx="4" fill="#0f172a" stroke="#334155" stroke-width="1"/>
  <text x="710" y="290" text-anchor="middle" fill="#64748b" font-family="monospace" font-size="9">Genie</text>
  <text x="600" y="370" text-anchor="middle" fill="#334155" font-family="monospace" font-size="10">Agentic Support Console    End-to-End Example</text>
</svg>
