<svg width="1200" height="400" viewBox="0 0 1200 400" fill="none" xmlns="http://www.w3.org/2000/svg">
  <rect width="1200" height="400" fill="#0f172a"/>
  <rect x="40" y="80" width="220" height="120" rx="8" fill="#1e293b" stroke="#334155" stroke-width="1"/>
  <text x="150" y="120" text-anchor="middle" fill="#94a3b8" font-family="monospace" font-size="11">Lakebase Postgres</text>
  <text x="150" y="145" text-anchor="middle" fill="#64748b" font-family="monospace" font-size="9">saas_tracker.subscriptions</text>
  <text x="150" y="175" text-anchor="middle" fill="#475569" font-family="monospace" font-size="8">name | vendor | cost | owner</text>
  <line x1="260" y1="140" x2="380" y2="140" stroke="#475569" stroke-width="1.5" stroke-dasharray="4,3"/>
  <text x="320" y="132" text-anchor="middle" fill="#64748b" font-family="monospace" font-size="8">CRUD</text>
  <rect x="380" y="40" width="440" height="200" rx="12" fill="#1e293b" stroke="#60a5fa" stroke-width="1.5"/>
  <text x="600" y="80" text-anchor="middle" fill="#60a5fa" font-family="monospace" font-size="13">SaaS Tracker</text>
  <text x="600" y="100" text-anchor="middle" fill="#94a3b8" font-family="monospace" font-size="10">Databricks App (AppKit)</text>
  <rect x="405" y="120" width="100" height="36" rx="4" fill="#0f172a" stroke="#334155" stroke-width="1"/>
  <text x="455" y="143" text-anchor="middle" fill="#64748b" font-family="monospace" font-size="9">Dashboard</text>
  <rect x="520" y="120" width="80" height="36" rx="4" fill="#0f172a" stroke="#334155" stroke-width="1"/>
  <text x="560" y="143" text-anchor="middle" fill="#64748b" font-family="monospace" font-size="9">Add New</text>
  <rect x="615" y="120" width="80" height="36" rx="4" fill="#0f172a" stroke="#334155" stroke-width="1"/>
  <text x="655" y="143" text-anchor="middle" fill="#64748b" font-family="monospace" font-size="9">Detail</text>
  <rect x="710" y="120" width="85" height="36" rx="4" fill="#0f172a" stroke="#334155" stroke-width="1"/>
  <text x="752" y="143" text-anchor="middle" fill="#64748b" font-family="monospace" font-size="9">Analytics</text>
  <rect x="405" y="175" width="195" height="46" rx="4" fill="#0f172a" stroke="#475569" stroke-width="1"/>
  <text x="502" y="196" text-anchor="middle" fill="#94a3b8" font-family="monospace" font-size="9">Filters: status | category | search</text>
  <text x="502" y="212" text-anchor="middle" fill="#475569" font-family="monospace" font-size="8">cost | owner | renewal tracking</text>
  <rect x="615" y="175" width="180" height="46" rx="4" fill="#0f172a" stroke="#475569" stroke-width="1"/>
  <text x="705" y="196" text-anchor="middle" fill="#94a3b8" font-family="monospace" font-size="9">Spend charts + KPI cards</text>
  <text x="705" y="212" text-anchor="middle" fill="#475569" font-family="monospace" font-size="8">by category | monthly | annual</text>
  <rect x="880" y="80" width="280" height="120" rx="8" fill="#1e293b" stroke="#fbbf24" stroke-width="1.5"/>
  <text x="1020" y="120" text-anchor="middle" fill="#fbbf24" font-family="monospace" font-size="11">Genie Space</text>
  <text x="1020" y="145" text-anchor="middle" fill="#94a3b8" font-family="monospace" font-size="9">Natural language analytics</text>
  <text x="1020" y="170" text-anchor="middle" fill="#475569" font-family="monospace" font-size="8">"What's our monthly spend on Engineering?"</text>
  <line x1="820" y1="140" x2="880" y2="140" stroke="#fbbf24" stroke-width="1.5" stroke-dasharray="4,3"/>
  <rect x="380" y="280" width="440" height="50" rx="8" fill="#1e293b" stroke="#334155" stroke-width="1"/>
  <text x="600" y="305" text-anchor="middle" fill="#94a3b8" font-family="monospace" font-size="10">SQL Warehouse</text>
  <text x="600" y="320" text-anchor="middle" fill="#64748b" font-family="monospace" font-size="8">spend_overview.sql | spend_by_category.sql</text>
  <line x1="600" y1="240" x2="600" y2="280" stroke="#475569" stroke-width="1.5" stroke-dasharray="4,3"/>
  <text x="600" y="370" text-anchor="middle" fill="#334155" font-family="monospace" font-size="10">SaaS Subscription Tracker    CRUD + Analytics Example</text>
</svg>
