<svg width="960" height="540" viewBox="0 0 960 540" fill="none" xmlns="http://www.w3.org/2000/svg">
  <defs>
    <linearGradient id="bg" x1="80" y1="42" x2="886" y2="516" gradientUnits="userSpaceOnUse">
      <stop stop-color="#071A21"/>
      <stop offset="1" stop-color="#0F2A34"/>
    </linearGradient>
    <linearGradient id="beamA" x1="158" y1="95" x2="494" y2="339" gradientUnits="userSpaceOnUse">
      <stop stop-color="#00B6CB"/>
      <stop offset="1" stop-color="#76E1EC"/>
    </linearGradient>
    <linearGradient id="beamB" x1="505" y1="110" x2="826" y2="390" gradientUnits="userSpaceOnUse">
      <stop stop-color="#FF3621"/>
      <stop offset="1" stop-color="#FF8F84"/>
    </linearGradient>
  </defs>
  <rect x="8" y="8" width="944" height="524" rx="28" fill="url(#bg)"/>
  <rect x="74" y="78" width="812" height="384" rx="24" fill="#0B1F27" fill-opacity="0.86" stroke="white" stroke-opacity="0.14" stroke-width="2"/>
  <path d="M154 376L276 248L374 312L514 170L668 248L796 142" stroke="url(#beamA)" stroke-width="18" stroke-linecap="round" stroke-linejoin="round"/>
  <path d="M154 332L280 198L394 246L554 128L684 190L804 114" stroke="url(#beamB)" stroke-width="8" stroke-linecap="round" stroke-linejoin="round" opacity="0.85"/>
  <circle cx="154" cy="376" r="16" fill="#00B6CB"/>
  <circle cx="276" cy="248" r="16" fill="#00B6CB"/>
  <circle cx="374" cy="312" r="16" fill="#00B6CB"/>
  <circle cx="514" cy="170" r="16" fill="#00B6CB"/>
  <circle cx="668" cy="248" r="16" fill="#00B6CB"/>
  <circle cx="796" cy="142" r="16" fill="#00B6CB"/>
  <rect x="150" y="124" width="212" height="20" rx="8" fill="white" fill-opacity="0.62"/>
  <rect x="150" y="154" width="288" height="14" rx="7" fill="white" fill-opacity="0.3"/>
  <rect x="150" y="182" width="246" height="14" rx="7" fill="white" fill-opacity="0.2"/>
  <rect x="680" y="334" width="138" height="18" rx="9" fill="#FF3621"/>
  <rect x="528" y="334" width="138" height="18" rx="9" fill="#00B6CB"/>
  <rect x="448" y="392" width="372" height="34" rx="12" fill="#E2E8F0" fill-opacity="0.12"/>
</svg>
